<svg width="25" height="25" viewBox="0 0 25 25" fill="none" xmlns="http://www.w3.org/2000/svg">
<path d="M12.8223 3.90625C17.7723 3.90625 21.8223 7.95625 21.8223 12.9062C21.8223 17.8562 17.7723 21.9062 12.8223 21.9062C7.87227 21.9062 3.82227 17.8562 3.82227 12.9062C3.82227 7.95625 7.87227 3.90625 12.8223 3.90625ZM12.8223 2.40625C7.04727 2.40625 2.32227 7.13125 2.32227 12.9062C2.32227 18.6812 7.04727 23.4062 12.8223 23.4062C18.5973 23.4062 23.3223 18.6812 23.3223 12.9062C23.3223 7.13125 18.5973 2.40625 12.8223 2.40625Z" fill="#FFFFFF"/>
<path d="M18.8223 12.1562H13.5723V6.90625H12.0723V12.1562H6.82227V13.6562H12.0723V18.9062H13.5723V13.6562H18.8223V12.1562Z" fill="#FFFFFF"/>
</svg>
